<svg width="12" height="12" viewBox="0 0 12 12" fill="none" xmlns="http://www.w3.org/2000/svg">
<g clip-path="url(#clip0_18_1116)">
<path d="M12 3.30581C12 2.65061 11.467 2.11758 10.8118 2.11758H8.47059V1.7411C8.47059 1.17023 8.00616 0.705811 7.43529 0.705811H4.56471C3.99384 0.705811 3.52941 1.17023 3.52941 1.7411V2.11758H1.18824C0.533035 2.11758 0 2.65061 0 3.30581V5.99993H0.705882V10.1058C0.705882 10.761 1.23892 11.294 1.89412 11.294H10.1059C10.7611 11.294 11.2941 10.761 11.2941 10.1058V5.99993H12V3.30581ZM4.23529 1.7411C4.23529 1.55946 4.38306 1.41169 4.56471 1.41169H7.43529C7.61694 1.41169 7.76471 1.55946 7.76471 1.7411V2.11758H4.23529V1.7411ZM3.17647 10.5882V8.82346H7.05882V9.88228H7.76471V8.82346H8.82353V10.5882H3.17647ZM10.5882 10.1058C10.5882 10.3718 10.3719 10.5882 10.1059 10.5882H9.52941V8.11758H2.47059V10.5882H1.89412C1.62814 10.5882 1.41176 10.3718 1.41176 10.1058V5.99993H2.47059V6.35287C2.47059 6.9367 2.94558 7.41169 3.52941 7.41169C4.11325 7.41169 4.58824 6.9367 4.58824 6.35287V5.99993H7.41176V6.35287C7.41176 6.9367 7.88673 7.41169 8.47059 7.41169C9.05445 7.41169 9.52941 6.9367 9.52941 6.35287V5.99993H10.5882V10.1058ZM3.17647 6.35287V5.29405H3.88235V6.35287C3.88235 6.54748 3.72402 6.70581 3.52941 6.70581C3.3348 6.70581 3.17647 6.54748 3.17647 6.35287ZM8.11765 6.35287V5.29405H8.82353V6.35287C8.82353 6.54748 8.66522 6.70581 8.47059 6.70581C8.27595 6.70581 8.11765 6.54748 8.11765 6.35287ZM11.2941 5.29405H9.52941V4.58816H7.41176V5.29405H4.58824V4.58816H2.47059V5.29405H0.705882V3.30581C0.705882 3.03983 0.922259 2.82346 1.18824 2.82346H10.8118C11.0777 2.82346 11.2941 3.03983 11.2941 3.30581V5.29405Z" fill="#A4A4AA"/>
</g>
<defs>
<clipPath id="clip0_18_1116">
<rect width="12" height="12" fill="white"/>
</clipPath>
</defs>
</svg>
