<svg width="45" height="45" viewBox="0 0 45 45" fill="none" xmlns="http://www.w3.org/2000/svg">
<path opacity="0.2" d="M22.5 39.3751C31.8198 39.3751 39.375 31.8199 39.375 22.5001C39.375 13.1803 31.8198 5.62512 22.5 5.62512C13.1802 5.62512 5.625 13.1803 5.625 22.5001C5.625 31.8199 13.1802 39.3751 22.5 39.3751Z" fill="white"/>
<path d="M30.2344 18.2811L19.9218 28.1249L14.7656 23.203" stroke="white" stroke-width="2.5" stroke-linecap="round" stroke-linejoin="round"/>
<path d="M22.5 39.3751C31.8198 39.3751 39.375 31.8199 39.375 22.5001C39.375 13.1803 31.8198 5.62512 22.5 5.62512C13.1802 5.62512 5.625 13.1803 5.625 22.5001C5.625 31.8199 13.1802 39.3751 22.5 39.3751Z" stroke="white" stroke-width="2.5" stroke-linecap="round" stroke-linejoin="round"/>
</svg>
