<svg width="24" height="24" viewBox="0 0 24 24" fill="none" xmlns="http://www.w3.org/2000/svg">
<path d="M11.8766 2.28955C6.55578 2.28955 2.22687 6.61847 2.22687 11.9393C2.22687 17.2601 6.55578 21.589 11.8766 21.589C17.1974 21.589 21.5263 17.2601 21.5263 11.9393C21.5263 6.61847 17.1974 2.28955 11.8766 2.28955ZM13.3611 16.393H10.392C10.1951 16.393 10.0063 16.3148 9.86713 16.1756C9.72793 16.0364 9.64972 15.8476 9.64972 15.6507C9.64972 15.4538 9.72793 15.265 9.86713 15.1258C10.0063 14.9866 10.1951 14.9084 10.392 14.9084H13.3611C13.558 14.9084 13.7468 14.9866 13.886 15.1258C14.0252 15.265 14.1034 15.4538 14.1034 15.6507C14.1034 15.8476 14.0252 16.0364 13.886 16.1756C13.7468 16.3148 13.558 16.393 13.3611 16.393ZM15.588 13.4238H8.16515C7.96829 13.4238 7.77948 13.3456 7.64028 13.2064C7.50107 13.0672 7.42287 12.8784 7.42287 12.6815C7.42287 12.4847 7.50107 12.2959 7.64028 12.1567C7.77948 12.0175 7.96829 11.9393 8.16515 11.9393H15.588C15.7849 11.9393 15.9737 12.0175 16.1129 12.1567C16.2521 12.2959 16.3303 12.4847 16.3303 12.6815C16.3303 12.8784 16.2521 13.0672 16.1129 13.2064C15.9737 13.3456 15.7849 13.4238 15.588 13.4238ZM17.0726 10.4547H6.68058C6.48371 10.4547 6.29491 10.3765 6.15571 10.2373C6.0165 10.0981 5.9383 9.90927 5.9383 9.71241C5.9383 9.51554 6.0165 9.32674 6.15571 9.18753C6.29491 9.04833 6.48371 8.97012 6.68058 8.97012H17.0726C17.2694 8.97012 17.4582 9.04833 17.5975 9.18753C17.7367 9.32674 17.8149 9.51554 17.8149 9.71241C17.8149 9.90927 17.7367 10.0981 17.5975 10.2373C17.4582 10.3765 17.2694 10.4547 17.0726 10.4547Z" fill="#1E2A5E"/>
</svg>
