<svg width="20" height="16" viewBox="0 0 20 16" fill="none" xmlns="http://www.w3.org/2000/svg">
<g opacity="0.94">
<path fill-rule="evenodd" clip-rule="evenodd" d="M20 15C20 15.5523 19.5523 16 19 16L1 16C0.447718 16 1.94649e-06 15.5523 1.99477e-06 15C2.04305e-06 14.4477 0.447718 14 1 14L19 14C19.5523 14 20 14.4477 20 15ZM20 8.00007C20 8.55236 19.5523 9.00007 19 9.00007L6 9.00007C5.44772 9.00007 5 8.55236 5 8.00007C5 7.44779 5.44772 7.00007 6 7.00007L19 7.00007C19.5523 7.00007 20 7.44779 20 8.00007ZM19 1.99997C19.5523 1.99997 20 1.55226 20 0.99997C20 0.447686 19.5523 -2.86494e-05 19 -2.86977e-05L1 -3.02713e-05C0.447717 -3.03195e-05 1.35963e-06 0.447684 1.31134e-06 0.999969C1.26306e-06 1.55225 0.447717 1.99997 1 1.99997L19 1.99997Z" fill="#E1D7B7"/>
</g>
</svg>
