<svg width="16" height="16" viewBox="0 0 16 16" fill="none" xmlns="http://www.w3.org/2000/svg">
<g clip-path="url(#clip0_22_6089)">
<path d="M7.99996 5.66675C6.71363 5.66675 5.66663 6.71341 5.66663 8.00008C5.66663 9.28675 6.71363 10.3334 7.99996 10.3334C9.28629 10.3334 10.3333 9.28675 10.3333 8.00008C10.3333 6.71341 9.28629 5.66675 7.99996 5.66675ZM7.99996 9.00008C7.44863 9.00008 6.99996 8.55141 6.99996 8.00008C6.99996 7.44875 7.44863 7.00008 7.99996 7.00008C8.55129 7.00008 8.99996 7.44875 8.99996 8.00008C8.99996 8.55141 8.55129 9.00008 7.99996 9.00008Z" fill="#1E2A5E"/>
<path d="M15.3333 7.33333H13.9607C13.652 4.557 11.443 2.348 8.66667 2.03933V0.666667C8.66667 0.298667 8.368 0 8 0C7.632 0 7.33333 0.298667 7.33333 0.666667V2.03933C4.557 2.348 2.348 4.557 2.03933 7.33333H0.666667C0.298667 7.33333 0 7.632 0 8C0 8.368 0.298667 8.66667 0.666667 8.66667H2.03933C2.348 11.443 4.557 13.652 7.33333 13.9607V15.3333C7.33333 15.7013 7.632 16 8 16C8.368 16 8.66667 15.7013 8.66667 15.3333V13.9607C11.443 13.652 13.652 11.443 13.9607 8.66667H15.3333C15.7013 8.66667 16 8.368 16 8C16 7.632 15.7013 7.33333 15.3333 7.33333ZM8 12.6667C5.42667 12.6667 3.33333 10.5733 3.33333 8C3.33333 5.42667 5.42667 3.33333 8 3.33333C10.5733 3.33333 12.6667 5.42667 12.6667 8C12.6667 10.5733 10.5733 12.6667 8 12.6667Z" fill="#1E2A5E"/>
</g>
<defs>
<clipPath id="clip0_22_6089">
<rect width="16" height="16" fill="white"/>
</clipPath>
</defs>
</svg>
