<svg width="21" height="21" viewBox="0 0 21 21" fill="none" xmlns="http://www.w3.org/2000/svg">
<path fill-rule="evenodd" clip-rule="evenodd" d="M3.56669 9.69158C3.43253 10.0154 3.40696 10.1808 3.40696 10.2206V17.0361C3.40696 17.5055 3.78728 17.8863 4.2587 17.8863H6.8139V12.7759C6.8139 11.8351 7.57657 11.0724 8.51737 11.0724H11.9243C12.8651 11.0724 13.6278 11.8351 13.6278 12.7759V17.8863H16.183C16.6544 17.8863 17.0347 17.5055 17.0347 17.0361V10.2206C17.0347 10.1808 17.0092 10.0154 16.875 9.69158C16.7504 9.39076 16.5614 9.02192 16.3148 8.60446C15.8222 7.77089 15.1311 6.79667 14.3575 5.86844C13.5822 4.93808 12.7453 4.07937 11.9671 3.46174C11.5781 3.15299 11.2205 2.91794 10.9069 2.7632C10.5863 2.60496 10.3606 2.55503 10.2208 2.55503C10.0811 2.55503 9.85541 2.60496 9.53477 2.7632C9.22121 2.91794 8.86363 3.15299 8.4746 3.46174C7.69638 4.07937 6.85945 4.93808 6.08415 5.86844C5.31063 6.79667 4.6195 7.77089 4.12693 8.60446C3.88026 9.02192 3.69131 9.39076 3.56669 9.69158ZM8.7809 1.23562C9.22882 1.01457 9.72181 0.851562 10.2208 0.851562C10.7199 0.851562 11.2129 1.01457 11.6608 1.23562C12.1158 1.46016 12.5767 1.77076 13.0261 2.12743C13.9247 2.84063 14.8445 3.79186 15.6662 4.7779C16.4897 5.76608 17.2358 6.81473 17.7813 7.73786C18.0537 8.19875 18.2839 8.64173 18.4488 9.03959C18.6041 9.41446 18.7382 9.8346 18.7382 10.2206V17.0361C18.7382 18.4483 17.5932 19.5897 16.183 19.5897H13.6278C12.687 19.5897 11.9243 18.8271 11.9243 17.8863V12.7759H8.51737V17.8863C8.51737 18.8271 7.7547 19.5897 6.8139 19.5897H4.2587C2.84851 19.5897 1.70349 18.4483 1.70349 17.0361V10.2206C1.70349 9.8346 1.83762 9.41446 1.99292 9.03959C2.15775 8.64173 2.38802 8.19875 2.66037 7.73786C3.20586 6.81473 3.95203 5.76608 4.77551 4.7779C5.59722 3.79186 6.51699 2.84063 7.41562 2.12743C7.86502 1.77076 8.32591 1.46016 8.7809 1.23562Z" fill="white"/>
</svg>
