<svg width="20" height="20" viewBox="0 0 20 20" fill="none" xmlns="http://www.w3.org/2000/svg">
<path d="M15.1852 15.2775C14.6738 15.2775 14.2592 15.6921 14.2592 16.2035C14.2592 16.7148 14.6738 17.1294 15.1852 17.1294L17.037 17.1294C17.5484 17.1294 17.963 16.7148 17.963 16.2035L17.963 3.24051C17.963 2.72913 17.5484 2.31458 17.037 2.31458L15.1852 2.31458C14.6738 2.31458 14.2592 2.72913 14.2592 3.24051C14.2592 3.75188 14.6738 4.16643 15.1852 4.16643L16.1111 4.16643L16.1111 15.2775L15.1852 15.2775Z" fill="#FE5050"/>
<path d="M2.38887 10.2591L4.99998 13.9628C5.29478 14.3783 5.86993 14.4776 6.28702 14.185C6.48928 14.0432 6.62654 13.8266 6.66827 13.5831C6.71 13.3397 6.65275 13.0897 6.50924 12.8887L4.91665 10.6479L12.4074 10.6479C12.9188 10.6479 13.3333 10.2334 13.3333 9.72202C13.3333 9.21064 12.9188 8.79609 12.4074 8.79609L4.99998 8.79609L6.66665 6.57387C6.81399 6.37741 6.87726 6.13047 6.84253 5.88736C6.8078 5.64426 6.67792 5.42491 6.48146 5.27757C6.32119 5.15736 6.12625 5.09238 5.92591 5.09238C5.63446 5.09238 5.36003 5.2296 5.18517 5.46276L2.40739 9.16646C2.16406 9.4878 2.15657 9.92965 2.38887 10.2591Z" fill="#FE5050"/>
</svg>
