<svg width="20" height="20" viewBox="0 0 20 20" fill="none" xmlns="http://www.w3.org/2000/svg">
<path fill-rule="evenodd" clip-rule="evenodd" d="M5.27057 1.29124C5.71826 1.06741 6.25235 0.804199 7.2389 0.804199C8.22545 0.804199 8.75953 1.06739 9.20723 1.29122L9.22005 1.29763C9.57042 1.47284 9.84159 1.60845 10.4562 1.60847C11.4512 1.6085 12.0405 1.2375 12.237 1.08983C12.5429 0.859957 12.9043 0.879338 13.1538 0.994746C13.4066 1.11164 13.6735 1.39054 13.6735 1.80275L13.6735 10.4561H16.0865C17.4186 10.4561 18.4994 11.535 18.4994 12.8682V15.282C18.4994 16.026 18.3111 16.6375 17.9873 17.1232C17.6669 17.6038 17.2454 17.9143 16.8483 18.1128C16.4544 18.3097 16.0703 18.4042 15.7914 18.4507C15.6239 18.4786 15.4523 18.4996 15.2821 18.4993H4.02161C3.27763 18.4993 2.66616 18.311 2.18046 17.9872C1.69979 17.6667 1.38938 17.2452 1.19086 16.8482C0.993913 16.4543 0.89945 16.0702 0.852968 15.7913C0.829409 15.6499 0.817318 15.5304 0.811078 15.443C0.805879 15.3702 0.804343 15.3272 0.804321 15.282V1.80274C0.804321 1.39054 1.07123 1.11164 1.32396 0.994742C1.57348 0.87933 1.93489 0.859949 2.24076 1.08981C2.43725 1.23747 3.02658 1.60847 4.02161 1.60847C4.63623 1.60847 4.9074 1.47286 5.25776 1.29765L5.27057 1.29124ZM2.41564 15.282L2.41297 2.96277C2.84744 3.10921 3.38405 3.21712 4.02161 3.21712C5.00817 3.21712 5.54226 2.9539 5.98994 2.73008L6.00276 2.72367C6.35312 2.54845 6.62428 2.41285 7.2389 2.41285C7.85354 2.41285 8.12471 2.54845 8.47507 2.72366L8.48787 2.73006C8.93555 2.95388 9.46963 3.21708 10.4562 3.21712C11.0937 3.21714 11.6304 3.10923 12.0648 2.96279V15.282C12.0648 15.9118 12.1998 16.4467 12.4377 16.8907H4.02161C3.55912 16.8907 3.26571 16.7773 3.07277 16.6487C2.8748 16.5167 2.73278 16.335 2.62967 16.1288C2.525 15.9194 2.46865 15.7004 2.43973 15.5268C2.42613 15.4452 2.41789 15.3644 2.41564 15.282ZM15.5269 16.8639C15.7005 16.835 15.9196 16.7786 16.1289 16.674C16.3351 16.5709 16.5169 16.4288 16.6488 16.2309C16.7775 16.0379 16.8908 15.7445 16.8908 15.282V12.8682C16.8908 12.4245 16.5312 12.0647 16.0865 12.0647H13.6735L13.6735 15.282C13.6735 15.7445 13.7868 16.0379 13.9154 16.2309C14.0474 16.4288 14.2292 16.5709 14.4354 16.674C14.6447 16.7786 14.8638 16.835 15.0373 16.8639C15.1222 16.878 15.1912 16.8848 15.2358 16.888C15.3328 16.8949 15.4315 16.8798 15.5269 16.8639Z" fill="white"/>
<path d="M4.02161 6.43446C4.02161 5.99025 4.38172 5.63014 4.82594 5.63014H9.65187C10.0961 5.63014 10.4562 5.99025 10.4562 6.43446C10.4562 6.87868 10.0961 7.23878 9.65187 7.23878H4.82594C4.38172 7.23878 4.02161 6.87868 4.02161 6.43446Z" fill="white"/>
<path d="M4.02161 9.65175C4.02161 9.20754 4.38172 8.84743 4.82594 8.84743H9.65187C10.0961 8.84743 10.4562 9.20754 10.4562 9.65175C10.4562 10.096 10.0961 10.4561 9.65187 10.4561H4.82594C4.38172 10.4561 4.02161 10.096 4.02161 9.65175Z" fill="white"/>
<path d="M4.02161 12.869C4.02161 12.4248 4.38172 12.0647 4.82594 12.0647H9.65187C10.0961 12.0647 10.4562 12.4248 10.4562 12.869C10.4562 13.3133 10.0961 13.6734 9.65187 13.6734H4.82594C4.38172 13.6734 4.02161 13.3133 4.02161 12.869Z" fill="white"/>
</svg>
