<svg width="24" height="24" viewBox="0 0 24 24" fill="none" xmlns="http://www.w3.org/2000/svg">
<path d="M12 21.25C12.0663 21.25 12.1299 21.2763 12.1768 21.3232C12.2237 21.3701 12.25 21.4337 12.25 21.5C12.25 21.5663 12.2237 21.6299 12.1768 21.6768C12.1299 21.7237 12.0663 21.75 12 21.75C11.9337 21.75 11.8701 21.7237 11.8232 21.6768C11.7763 21.6299 11.75 21.5663 11.75 21.5C11.75 21.4337 11.7763 21.3701 11.8232 21.3232C11.8701 21.2763 11.9337 21.25 12 21.25Z" stroke="#1E2A5E" stroke-linecap="round" stroke-linejoin="round"/>
<path d="M18.5 19.5H5.5" stroke="#1E2A5E" stroke-linecap="round" stroke-linejoin="round"/>
<path d="M16.5 0.5H7.5C6.39543 0.5 5.5 1.39543 5.5 2.5V21.5C5.5 22.6046 6.39543 23.5 7.5 23.5H16.5C17.6046 23.5 18.5 22.6046 18.5 21.5V2.5C18.5 1.39543 17.6046 0.5 16.5 0.5Z" stroke="#1E2A5E" stroke-linecap="round" stroke-linejoin="round"/>
</svg>
