<svg width="12" height="12" viewBox="0 0 12 12" fill="none" xmlns="http://www.w3.org/2000/svg">
<path d="M11.25 5.97754H0.75C0.336492 5.97754 0 6.31528 0 6.73033C0 7.14537 0.336492 7.48311 0.75 7.48311H11.25C11.6635 7.48311 12 7.14537 12 6.73033C12 6.31528 11.6635 5.97754 11.25 5.97754Z" fill="#1E2A5E"/>
<path d="M11.318 6.99069C11.1825 6.95256 11.0465 7.02984 11.009 7.16334L10.9895 7.2321H1.00901L0.98902 7.16334C0.95152 7.02984 0.814528 6.95357 0.68002 6.99069C0.547012 7.02883 0.470512 7.16786 0.508528 7.30084L1.19752 9.72181C1.41101 10.4721 2.10303 10.996 2.88003 10.996H9.11752C9.89501 10.996 10.5865 10.4721 10.8 9.72181L11.489 7.30084C11.5275 7.16783 11.4505 7.02883 11.318 6.99069ZM2.88052 9.99229C2.54752 9.99229 2.25052 9.76796 2.15951 9.44626L1.83502 8.30504C1.79703 8.17153 1.87402 8.03302 2.00651 7.99489C2.1405 7.95675 2.27801 8.03453 2.31551 8.16753L2.64 9.30876C2.67101 9.41566 2.7695 9.49094 2.8805 9.49094C3.0185 9.49094 3.1305 9.60336 3.1305 9.74187C3.13053 9.88038 3.01852 9.99229 2.88052 9.99229Z" fill="#1E2A5E"/>
<path d="M3.36229 10.5207C3.2388 10.46 3.08929 10.5086 3.02678 10.6331L2.52679 11.6368C2.46529 11.7608 2.51528 11.9113 2.6388 11.9736C2.67529 11.9916 2.71331 12.0002 2.75081 12.0002C2.84231 12.0002 2.93031 11.9495 2.97431 11.8612L3.4743 10.8575C3.5358 10.7335 3.48578 10.5829 3.36229 10.5207Z" fill="#1E2A5E"/>
<path d="M9.47429 11.6373L8.9743 10.6335C8.91231 10.5091 8.76231 10.4594 8.63879 10.5211C8.5153 10.5833 8.46529 10.7339 8.52679 10.8579L9.02678 11.8616C9.07077 11.9494 9.15878 12.0001 9.25028 12.0001C9.28778 12.0001 9.32577 11.9916 9.36229 11.974C9.4858 11.9118 9.53579 11.7612 9.47429 11.6373Z" fill="#1E2A5E"/>
<path d="M10.0433 0C9.78834 0 9.54834 0.099862 9.36785 0.281049L8.57435 1.0775C8.47685 1.17536 8.47685 1.33446 8.57435 1.43232C8.67185 1.53018 8.83035 1.53018 8.92785 1.43232L9.72133 0.636364C9.80683 0.550053 9.92132 0.502368 10.0458 0.502368C10.2968 0.502368 10.5008 0.707126 10.5008 0.959051V6.22856C10.5008 6.36708 10.6128 6.4795 10.7508 6.4795C10.8888 6.4795 11.0008 6.36708 11.0013 6.22807V0.958557C11.0013 0.4301 10.5733 0 10.0433 0Z" fill="#1E2A5E"/>
<path d="M9.17701 1.32852L8.67702 0.826674C8.62002 0.769462 8.54052 0.742856 8.45952 0.756406L7.20953 0.962176C7.11754 0.977232 7.04202 1.04247 7.01254 1.1308C6.98303 1.21914 7.00553 1.31749 7.07055 1.38423L8.57055 2.93497C8.61805 2.98466 8.68354 3.01126 8.74954 3.01126C8.77305 3.01126 8.79705 3.00776 8.82053 3.00073C8.90952 2.97464 8.97702 2.90086 8.99502 2.80952L9.24503 1.55488C9.26151 1.47306 9.23601 1.38823 9.17701 1.32852Z" fill="#1E2A5E"/>
<path d="M5.92614 3.04019C5.82864 2.94233 5.67013 2.94233 5.57263 3.04019L5.07264 3.54204C4.97514 3.63991 4.97514 3.799 5.07264 3.89687C5.12164 3.94554 5.18563 3.97015 5.24964 3.97015C5.31364 3.97015 5.37763 3.94556 5.42614 3.89687L5.92614 3.39502C6.02364 3.29713 6.02364 3.13806 5.92614 3.04019Z" fill="#1E2A5E"/>
<path d="M6.92663 4.0441C6.82913 3.94624 6.67062 3.94624 6.57312 4.0441L6.07312 4.54595C5.97563 4.64381 5.97563 4.80291 6.07312 4.90077C6.12213 4.94944 6.18612 4.97405 6.25013 4.97405C6.31413 4.97405 6.37812 4.94947 6.42663 4.90077L6.92663 4.39892C7.02413 4.30106 7.02413 4.14196 6.92663 4.0441Z" fill="#1E2A5E"/>
<path d="M7.42614 2.53824C7.32864 2.44038 7.17013 2.44038 7.07263 2.53824L6.57264 3.04009C6.47514 3.13795 6.47514 3.29705 6.57264 3.39491C6.62164 3.44359 6.68563 3.46819 6.74964 3.46819C6.81364 3.46819 6.87763 3.44361 6.92614 3.39491L7.42614 2.89306C7.52364 2.7952 7.52364 2.6361 7.42614 2.53824Z" fill="#1E2A5E"/>
</svg>
